# xmcd
#
# Track frame offsets:
#	182
#	21625
#	37732
#	49652
#	69470
#	82745
#	99912
#	116640
#	143575
#	158430
#	170942
#	192040
#
# Disc length: 2792 seconds
#
# Revision: 1
# Processed by: cddbd v1.5.2PL0 Copyright (c) Steve Scherf et al.
# Submitted via: audiograbber 1.83.01
#
DISCID=8f0ae60c
DTITLE=BuntLine - Tired Of The Road
DYEAR=1990
DGENRE=Country Rock
TTITLE0=Mary Lee
TTITLE1=Going Up's Easy, Comin' Down's Hard
TTITLE2=Tired Of The Road
TTITLE3=One Nighter
TTITLE4=Healin'
TTITLE5=Straight Shooter
TTITLE6=If You Ain't Got Nothing
TTITLE7=Stormy Monday
TTITLE8=The Last Time
TTITLE9=I've Been Rained On Too
TTITLE10=Call Me The Breeze
TTITLE11=White Freight Liner Blues
EXTD=Musicians:\nGer Romunde - Lead Vocal Piano\nKarel de Greef - Electric Acco
EXTD=ustic and Lesly Lead Guitars\nJoost Egmond - Electic Guitar, Rhodes Piano 
EXTD=Hammond Organ\nPeter Manuel - Steel Guitar\nTheo Heldoorn - Bass Guitar\nJ
EXTD=an van Loon - Percussion\nToon van der Aa - Backing Vocals\nValerie Koolem
EXTD=ans Beijnen - Backing Vocals\nMieke van Aalst - Backing Vocals\nGerrie van
EXTD=Schaiik - Backing Vocals\nRecorded and Mastered at the MMP Studio Waalwij
EXTD=k\nArranged and Produced by: Karel de Greef and Ger Romunde
EXTT0=
EXTT1=
EXTT2=
EXTT3=
EXTT4=
EXTT5=
EXTT6=
EXTT7=
EXTT8=
EXTT9=
EXTT10=
EXTT11=
PLAYORDER=
